<svg width="770" height="489" xmlns="http://www.w3.org/2000/svg" xmlns:xlink="http://www.w3.org/1999/xlink" version="1.1" baseProfile="full" viewBox="0 0 770 489">
<rect width="770" height="489" x="0" y="0" id="0" fill="none"></rect>
<path d="M385 9.9792A15 15 0 0 1 400.9574 -4.9902A250 250 0 0 1 550.1326 56.8002A15 15 0 0 1 550.8312 78.6688L429.7214 199.7786A15 15 0 0 1 411.2421 201.94A50 50 0 0 0 396.5385 195.8496A15 15 0 0 1 385 181.2544Z" fill="#4bc9ff"></path>
<path d="M543.3721 86.1279A15 15 0 0 1 565.2703 86.8604A239.4737 239.4737 0 0 1 623.9384 228.4977A15 15 0 0 1 608.972 244.5L448.2456 244.5A15 15 0 0 1 433.6504 232.9615A50 50 0 0 0 427.56 218.2579A15 15 0 0 1 429.7214 199.7786Z" fill="#4bc9ff"></path>
<path d="M598.4209 244.5A15 15 0 0 1 613.384 260.5517A228.9474 228.9474 0 0 1 557.8421 394.6416A15 15 0 0 1 535.9114 395.4114L429.7214 289.2214A15 15 0 0 1 427.56 270.7421A50 50 0 0 0 433.6504 256.0385A15 15 0 0 1 448.2456 244.5Z" fill="#3bbffa"></path>
<path d="M528.4488 387.9488A15 15 0 0 1 527.6378 409.9153A218.4211 218.4211 0 0 1 401.1061 462.3264A15 15 0 0 1 385 447.3673L385 307.7456A15 15 0 0 1 396.5385 293.1504A50 50 0 0 0 411.2421 287.06A15 15 0 0 1 429.7214 289.2214Z" fill="#27b4ef"></path>
<path d="M385 436.8106A15 15 0 0 1 368.8336 451.7652A207.8947 207.8947 0 0 1 249.8728 402.49A15 15 0 0 1 249.0158 380.4842L340.2786 289.2214A15 15 0 0 1 358.7579 287.06A50 50 0 0 0 373.4615 293.1504A15 15 0 0 1 385 307.7456Z" fill="#00aae4"></path>
<path d="M260.2176 369.2824A15 15 0 0 1 238.1442 368.3459A192.1053 192.1053 0 0 1 193.585 260.7704A15 15 0 0 1 208.5311 244.5L321.7544 244.5A15 15 0 0 1 336.3496 256.0385A50 50 0 0 0 342.44 270.7421A15 15 0 0 1 340.2786 289.2214Z" fill="#00aae4"></path>
<path d="M224.3831 244.5A15 15 0 0 1 209.4481 228.1052A176.3158 176.3158 0 0 1 249.2732 131.9589A15 15 0 0 1 271.4267 130.9267L340.2786 199.7786A15 15 0 0 1 342.44 218.2579A50 50 0 0 0 336.3496 232.9615A15 15 0 0 1 321.7544 244.5Z" fill="#00aae4"></path>
<path d="M282.6454 142.1454A15 15 0 0 1 283.7952 119.8955A160.5263 160.5263 0 0 1 368.4539 84.8287A15 15 0 0 1 385 99.7488L385 181.2544A15 15 0 0 1 373.4615 195.8496A50 50 0 0 0 358.7579 201.94A15 15 0 0 1 340.2786 199.7786Z" fill="#00aae4"></path>
<path d="M-5 -5l10 0l0 10l-10 0Z" transform="translate(385 484)" fill="rgb(0,0,0)" fill-opacity="0" stroke="#ccc" stroke-width="0"></path>
</svg>